<?xml version="1.0" encoding="UTF-8" standalone="no"?>
<svg
   xmlns:dc="http://purl.org/dc/elements/1.1/"
   xmlns:cc="http://creativecommons.org/ns#"
   xmlns:rdf="http://www.w3.org/1999/02/22-rdf-syntax-ns#"
   xmlns:svg="http://www.w3.org/2000/svg"
   xmlns="http://www.w3.org/2000/svg"
   xmlns:sodipodi="http://sodipodi.sourceforge.net/DTD/sodipodi-0.dtd"
   xmlns:inkscape="http://www.inkscape.org/namespaces/inkscape"
   id="svg"
   version="1.1"
   width="400"
   height="400"
   viewBox="0 0 400 400"
   sodipodi:docname="potigol_logo-no-stroke.svg"
   inkscape:version="0.92.1 r15371">
  <metadata
     id="metadata4496">
    <rdf:RDF>
      <cc:Work
         rdf:about="">
        <dc:format>image/svg+xml</dc:format>
        <dc:type
           rdf:resource="http://purl.org/dc/dcmitype/StillImage" />
        <dc:title></dc:title>
      </cc:Work>
    </rdf:RDF>
  </metadata>
  <defs
     id="defs4494" />
  <sodipodi:namedview
     pagecolor="#ffffff"
     bordercolor="#666666"
     borderopacity="1"
     objecttolerance="10"
     gridtolerance="10"
     guidetolerance="10"
     inkscape:pageopacity="0"
     inkscape:pageshadow="2"
     inkscape:window-width="1366"
     inkscape:window-height="705"
     id="namedview4492"
     showgrid="false"
     inkscape:zoom="0.94752309"
     inkscape:cx="186.24917"
     inkscape:cy="166.64265"
     inkscape:window-x="-8"
     inkscape:window-y="-8"
     inkscape:window-maximized="1"
     inkscape:current-layer="svgg" />
  <g
     id="svgg">
    <path
       id="path0"
       d="M190.769 20.963 C 145.636 22.259,104.553 41.615,70.897 77.439 C 37.686 112.790,22.546 152.958,23.484 203.231 C 24.461 255.619,44.669 298.865,85.077 335.043 C 131.303 376.430,195.553 390.189,258.140 372.105 C 287.467 363.631,320.828 342.600,328.570 327.704 C 341.196 303.410,320.535 281.895,254.769 250.855 C 238.860 243.346,237.402 242.878,236.305 244.927 C 235.283 246.838,235.921 247.771,240.541 251.120 C 255.909 262.258,261.189 266.107,268.923 271.808 C 305.235 298.573,311.523 304.597,311.535 312.629 C 311.553 324.881,282.649 344.137,250.615 353.214 C 210.259 364.650,172.781 361.762,137.001 344.457 C 121.393 336.908,105.560 326.288,97.012 317.634 C 52.419 272.490,37.244 218.575,51.994 157.692 C 54.948 145.498,65.218 122.660,72.265 112.615 C 78.146 104.232,80.535 100.931,81.394 100.000 C 81.941 99.408,82.562 98.587,82.773 98.176 C 87.692 88.612,119.239 64.461,134.946 58.235 C 173.147 43.093,211.065 39.435,242.154 47.891 C 253.980 51.108,260.156 53.462,271.538 59.089 C 304.309 75.290,328.159 98.029,343.816 128.000 C 347.336 134.737,348.767 137.994,355.237 153.995 C 361.507 169.502,361.365 169.231,363.225 169.231 C 365.605 169.231,365.980 168.441,365.745 163.929 C 361.593 84.298,294.796 23.143,209.692 21.057 C 206.477 20.979,202.600 20.876,201.077 20.830 C 199.554 20.784,194.915 20.844,190.769 20.963 M216.308 26.639 C 281.748 31.511,334.266 69.766,353.352 126.462 C 355.567 133.042,359.164 147.708,358.681 148.191 C 358.626 148.246,357.565 145.768,356.323 142.684 C 339.393 100.638,309.236 69.731,266.963 51.102 C 226.053 33.073,179.570 34.081,131.385 54.039 C 116.472 60.216,90.255 80.170,79.672 93.398 C 61.266 116.404,49.048 142.315,44.494 168.003 C 34.070 226.805,49.949 277.212,92.599 320.713 C 105.766 334.144,131.343 349.425,153.020 356.815 C 173.501 363.796,196.983 366.850,215.692 364.965 C 255.637 360.941,288.347 347.861,309.423 327.483 C 319.970 317.286,319.511 307.278,307.968 295.722 C 303.972 291.721,289.181 280.246,267.692 264.475 C 261.371 259.835,261.326 259.798,262.923 260.524 C 287.063 271.497,313.249 289.164,321.433 300.000 C 330.863 312.486,327.819 326.068,313.005 337.593 C 274.686 367.407,228.390 379.602,178.923 372.911 C 102.610 362.591,40.057 300.074,30.168 224.242 C 22.606 166.267,40.084 114.364,80.344 75.231 C 118.957 37.699,161.353 22.547,216.308 26.639 M191.692 60.935 C 175.884 62.181,151.607 69.691,147.033 74.751 C 133.671 89.532,130.679 110.488,139.093 130.360 C 144.507 143.148,160.353 168.205,163.639 169.173 C 167.489 170.308,175.393 171.385,179.871 171.385 C 183.924 171.385,194.198 169.644,194.964 168.827 C 194.994 168.795,194.825 167.662,194.588 166.308 C 191.020 145.929,197.607 127.110,216.181 104.615 C 221.071 98.693,222.392 97.520,231.234 91.253 C 239.052 85.712,249.385 81.141,261.593 77.826 C 264.876 76.935,264.931 77.019,259.262 74.294 C 236.450 63.326,215.048 59.095,191.692 60.935 M111.538 94.578 C 111.031 94.964,109.438 96.159,108.000 97.233 C 82.075 116.580,66.910 147.088,62.635 188.492 L 62.442 190.368 69.144 190.552 C 84.564 190.974,101.356 194.833,117.937 201.763 L 121.259 203.151 122.860 202.161 C 131.967 196.527,138.290 188.915,141.212 180.065 C 142.853 175.098,142.871 175.232,140.148 172.262 C 116.179 146.124,106.271 118.956,112.308 95.923 C 112.909 93.631,112.871 93.563,111.538 94.578 M282.923 94.608 C 270.377 96.614,254.720 104.747,239.755 117.032 C 230.929 124.278,220.069 142.297,216.615 155.428 C 211.961 173.121,215.314 191.818,226.495 210.517 C 230.097 216.542,235.844 220.783,248.751 226.941 C 260.385 232.491,287.056 242.709,301.373 247.100 C 302.755 247.524,303.762 248.046,304.212 248.571 C 304.595 249.018,307.980 253.192,311.734 257.846 C 315.488 262.500,318.606 266.365,318.664 266.436 C 318.886 266.706,319.084 266.155,320.321 261.836 C 321.679 257.093,322.347 256.000,323.887 256.000 C 325.314 256.000,326.255 257.584,336.285 276.868 C 342.303 288.437,346.344 295.882,346.472 295.637 C 346.589 295.414,346.994 293.960,347.372 292.406 C 348.065 289.555,348.487 288.868,349.792 288.470 C 351.388 287.983,351.880 288.577,363.535 305.076 C 369.794 313.937,374.985 321.118,375.069 321.034 C 377.627 318.476,371.781 273.197,364.752 241.131 C 361.782 227.583,353.469 196.105,352.402 194.367 C 352.318 194.230,351.654 195.162,350.926 196.439 C 342.973 210.396,329.030 212.965,315.738 202.923 L 313.476 201.215 311.427 203.146 C 297.402 216.364,274.782 211.959,267.621 194.615 C 260.812 178.126,261.320 166.824,269.379 155.531 C 278.316 143.006,297.917 140.882,310.186 151.109 L 311.603 152.290 312.598 151.053 C 316.380 146.347,322.122 143.542,328.841 143.121 L 331.990 142.923 329.430 137.692 C 320.950 120.364,309.739 106.967,296.154 97.930 C 290.000 93.836,289.125 93.617,282.923 94.608 M328.385 148.220 C 328.850 148.291,329.612 148.291,330.077 148.220 C 330.542 148.150,330.162 148.092,329.231 148.092 C 328.300 148.092,327.919 148.150,328.385 148.220 M268.098 174.769 C 268.098 175.869,268.154 176.319,268.223 175.769 C 268.291 175.219,268.291 174.319,268.223 173.769 C 268.154 173.219,268.098 173.669,268.098 174.769 M190.018 192.932 C 186.300 193.921,182.752 194.252,177.676 194.081 C 175.047 193.993,172.937 194.008,172.987 194.114 C 173.036 194.221,174.078 195.805,175.302 197.636 C 179.412 203.784,183.039 210.877,185.370 217.324 C 186.576 220.660,186.590 220.662,188.363 217.731 C 192.118 211.523,193.885 204.096,193.407 196.531 C 193.104 191.757,193.370 192.039,190.018 192.932 M309.058 198.538 L 308.154 199.538 309.154 198.635 C 309.704 198.138,310.154 197.688,310.154 197.635 C 310.154 197.397,309.900 197.606,309.058 198.538 M342.445 199.615 L 341.385 200.769 342.538 199.709 C 343.612 198.722,343.834 198.462,343.599 198.462 C 343.547 198.462,343.028 198.981,342.445 199.615 M331.006 203.915 C 331.559 203.984,332.389 203.982,332.852 203.912 C 333.314 203.842,332.862 203.786,331.846 203.788 C 330.831 203.789,330.452 203.847,331.006 203.915 M153.994 206.988 C 151.915 209.835,147.822 214.043,144.879 216.362 L 142.441 218.281 145.298 219.711 C 150.328 222.230,154.462 224.987,158.769 228.696 C 161.194 230.784,161.179 230.802,161.209 225.656 C 161.245 219.446,159.790 213.398,156.856 207.558 L 155.520 204.900 153.994 206.988 M62.154 214.268 C 62.154 235.969,69.984 258.590,84.087 277.630 L 86.548 280.953 89.505 278.080 C 97.739 270.080,106.106 265.526,115.692 263.828 C 117.300 263.543,118.802 263.257,119.030 263.192 C 119.366 263.096,119.406 262.132,119.243 258.075 C 118.736 245.504,117.232 234.016,114.844 224.474 L 113.692 219.871 111.846 219.149 C 98.075 213.766,83.064 210.670,68.692 210.249 L 62.154 210.058 62.154 214.268 M211.325 260.846 C 205.159 277.595,200.816 296.449,198.017 318.615 C 197.134 325.605,196.203 335.383,196.402 335.581 C 196.572 335.751,233.610 275.424,233.657 274.901 C 233.799 273.318,226.294 264.849,222.570 262.388 C 219.590 260.420,213.874 257.846,212.483 257.846 C 212.453 257.846,211.932 259.196,211.325 260.846 M123.184 280.911 C 118.614 282.553,113.509 285.371,108.927 288.782 C 105.738 291.155,98.462 297.968,98.462 298.581 C 98.462 298.769,100.099 300.723,102.100 302.923 C 112.288 314.123,122.122 321.655,133.167 326.716 C 137.435 328.671,136.971 328.733,137.989 326.077 C 139.973 320.900,142.795 316.628,146.755 312.805 L 148.941 310.695 147.634 308.963 C 137.822 295.963,125.680 280.448,125.280 280.401 C 124.999 280.368,124.056 280.597,123.184 280.911 M224.081 311.287 C 211.857 325.957,201.918 338.021,201.993 338.096 C 202.207 338.310,212.208 332.868,218.154 329.303 C 231.531 321.283,244.968 311.634,258.685 300.201 L 262.755 296.808 261.940 295.712 C 258.719 291.374,255.199 288.468,250.308 286.109 C 248.615 285.292,247.022 284.622,246.768 284.620 C 246.513 284.617,236.304 296.618,224.081 311.287 M269.231 310.947 C 250.355 324.455,229.303 335.468,208.077 342.938 C 205.612 343.805,206.088 344.000,210.675 344.000 C 234.239 344.000,256.983 336.219,282.840 319.313 C 287.593 316.205,287.438 316.546,285.296 313.918 C 283.463 311.671,278.142 308.161,275.231 307.279 C 274.772 307.140,273.246 308.073,269.231 310.947 M160.172 324.679 C 155.026 330.510,152.980 336.281,155.538 337.745 C 160.531 340.600,179.022 345.814,180.523 344.790 C 180.719 344.657,179.732 339.289,179.481 339.123 C 179.315 339.013,175.331 335.392,170.629 331.077 C 160.571 321.848,161.935 322.682,160.172 324.679 "
       stroke="none"
       fill="#fc9b33"
       fill-rule="evenodd"
       style="fill:#ffffff;fill-opacity:1" />
    <path
       id="path1"
       d="M191.846 55.600 C 184.839 56.237,174.308 58.270,166.917 60.412 C 160.299 62.330,148.275 66.950,147.134 68.013 C 146.837 68.289,146.253 68.603,145.836 68.710 C 142.870 69.470,134.394 82.623,131.902 90.331 C 124.532 113.129,131.623 136.275,155.884 168.614 C 157.725 171.068,159.308 173.179,159.403 173.307 C 159.643 173.630,163.875 174.711,167.538 175.384 C 178.364 177.373,188.341 176.788,197.131 173.646 C 200.917 172.293,200.973 172.142,199.855 166.154 C 196.346 147.353,202.015 130.686,219.164 109.385 C 226.049 100.831,233.156 95.273,244.480 89.583 C 250.110 86.754,264.858 81.846,267.728 81.846 C 269.086 81.846,272.784 80.296,273.418 79.461 C 274.738 77.722,273.840 76.085,270.541 74.211 C 252.262 63.831,232.547 57.374,214.000 55.692 C 210.880 55.409,194.686 55.342,191.846 55.600 M212.846 60.928 C 227.371 62.036,243.318 66.628,259.262 74.294 C 264.931 77.019,264.876 76.935,261.593 77.826 C 241.609 83.253,226.423 92.211,216.181 104.615 C 197.607 127.110,191.020 145.929,194.588 166.308 C 194.825 167.662,194.994 168.795,194.964 168.827 C 194.198 169.644,183.924 171.385,179.871 171.385 C 175.393 171.385,167.489 170.308,163.639 169.173 C 160.353 168.205,144.507 143.148,139.093 130.360 C 130.679 110.488,133.671 89.532,147.033 74.751 C 148.754 72.847,149.089 72.635,152.967 70.985 C 172.660 62.609,192.094 59.345,212.846 60.928 M116.149 85.570 C 83.278 102.921,61.693 140.711,57.405 188.421 C 56.724 195.990,56.176 195.579,67.231 195.786 C 83.622 196.092,99.673 199.632,115.699 206.475 C 121.571 208.982,121.446 208.972,124.544 207.171 C 137.379 199.711,145.619 188.603,147.724 175.925 L 148.119 173.542 147.214 172.327 C 146.715 171.658,145.093 169.772,143.609 168.135 C 119.563 141.613,110.961 115.187,118.977 92.462 C 120.655 87.703,120.747 86.654,119.573 85.644 C 118.538 84.753,117.730 84.736,116.149 85.570 M281.538 89.431 C 270.229 91.163,255.891 98.125,241.735 108.757 C 230.788 116.979,222.917 127.082,216.554 141.077 C 215.708 142.938,214.679 145.138,214.268 145.966 C 205.286 164.050,208.240 190.205,221.843 213.054 C 228.558 224.332,247.075 233.950,291.121 249.040 L 300.241 252.165 309.082 263.030 C 313.944 269.005,318.241 274.039,318.631 274.217 C 320.674 275.148,322.520 273.407,323.593 269.538 C 324.039 267.931,324.499 266.506,324.615 266.371 C 324.731 266.237,329.314 274.743,334.798 285.273 C 346.116 307.005,345.417 305.846,347.205 305.846 C 349.076 305.846,349.535 305.182,350.615 300.909 L 351.538 297.258 363.385 314.008 C 373.574 328.415,375.373 330.806,376.249 331.101 C 377.487 331.519,378.817 331.070,379.344 330.057 C 379.749 329.279,381.212 314.223,381.040 312.615 C 380.976 312.023,380.643 308.838,380.300 305.538 C 376.326 267.357,368.793 230.496,357.033 191.692 C 354.637 183.787,354.587 183.692,352.810 183.692 C 351.097 183.692,350.633 184.214,349.726 187.154 C 348.452 191.283,344.408 198.146,342.049 200.181 C 335.207 206.085,325.465 204.868,316.167 196.946 C 313.456 194.636,312.839 194.718,309.866 197.783 C 299.499 208.468,286.495 208.802,276.462 198.641 C 273.128 195.266,272.703 194.501,270.457 187.846 C 263.534 167.337,273.385 149.777,291.846 149.714 C 298.790 149.690,307.481 153.492,309.654 157.503 C 310.673 159.386,312.888 159.292,314.237 157.308 C 319.463 149.622,326.930 146.490,334.195 148.937 C 338.747 150.470,339.946 148.573,337.791 143.244 C 328.389 119.985,313.378 101.790,294.415 90.665 L 291.446 88.923 287.954 88.953 C 286.033 88.970,283.146 89.185,281.538 89.431 M112.308 95.923 C 106.271 118.956,116.179 146.124,140.148 172.262 C 142.871 175.232,142.853 175.098,141.212 180.065 C 138.290 188.915,131.967 196.527,122.860 202.161 L 121.259 203.151 117.937 201.763 C 101.356 194.833,84.564 190.974,69.144 190.552 L 62.442 190.368 62.635 188.492 C 66.910 147.088,82.075 116.580,108.000 97.233 C 109.438 96.159,111.031 94.964,111.538 94.578 C 112.871 93.563,112.909 93.631,112.308 95.923 M291.667 95.121 C 306.836 103.662,320.089 118.602,329.430 137.692 L 331.990 142.923 328.841 143.121 C 322.122 143.542,316.380 146.347,312.598 151.053 L 311.603 152.290 310.186 151.109 C 297.917 140.882,278.316 143.006,269.379 155.531 C 261.320 166.824,260.812 178.126,267.621 194.615 C 274.782 211.959,297.402 216.364,311.427 203.146 L 313.476 201.215 315.738 202.923 C 329.030 212.965,342.973 210.396,350.926 196.439 C 351.654 195.162,352.318 194.230,352.402 194.367 C 353.469 196.105,361.782 227.583,364.752 241.131 C 371.781 273.197,377.627 318.476,375.069 321.034 C 374.985 321.118,369.794 313.937,363.535 305.076 C 351.880 288.577,351.388 287.983,349.792 288.470 C 348.487 288.868,348.065 289.555,347.372 292.406 C 346.994 293.960,346.589 295.414,346.472 295.637 C 346.344 295.882,342.303 288.437,336.285 276.868 C 326.255 257.584,325.314 256.000,323.887 256.000 C 322.347 256.000,321.679 257.093,320.321 261.836 C 319.084 266.155,318.886 266.706,318.664 266.436 C 318.606 266.365,315.488 262.500,311.734 257.846 C 307.980 253.192,304.595 249.018,304.212 248.571 C 303.762 248.046,302.755 247.524,301.373 247.100 C 282.223 241.226,252.538 229.386,241.520 223.228 C 230.400 217.012,227.885 214.308,222.192 202.443 C 210.650 178.393,212.174 156.212,226.989 132.596 C 233.580 122.090,239.119 116.598,251.385 108.411 C 267.540 97.627,285.560 91.682,291.667 95.121 M191.231 187.086 C 185.774 189.008,177.765 189.425,171.231 188.129 C 163.482 186.592,161.581 188.207,165.463 193.032 C 172.845 202.208,178.486 212.679,181.982 223.692 C 184.083 230.314,186.191 230.076,191.454 222.623 C 197.530 214.018,199.911 202.518,198.028 190.869 C 197.199 185.743,196.364 185.279,191.231 187.086 M193.026 192.748 C 194.962 197.792,192.524 210.853,188.363 217.731 C 186.590 220.662,186.576 220.660,185.370 217.324 C 183.039 210.877,179.412 203.784,175.302 197.636 C 174.078 195.805,173.036 194.221,172.987 194.114 C 172.937 194.008,175.047 193.993,177.676 194.081 C 182.752 194.252,186.300 193.921,190.018 192.932 C 192.696 192.219,192.820 192.211,193.026 192.748 M154.116 197.541 C 153.841 197.702,153.022 198.840,152.296 200.070 C 148.921 205.788,143.951 210.983,138.545 214.443 C 132.721 218.170,132.425 220.025,137.359 221.865 C 144.745 224.620,154.794 231.348,159.329 236.575 C 161.861 239.494,164.362 239.225,165.247 235.939 C 168.311 224.560,166.291 212.753,159.226 200.747 C 157.196 197.299,155.911 196.492,154.116 197.541 M58.380 205.114 C 57.148 205.486,56.923 206.730,56.926 213.139 C 56.940 238.623,65.359 262.364,81.902 283.570 C 85.896 288.691,86.535 288.711,91.141 283.861 C 100.003 274.528,108.552 269.951,119.907 268.461 C 125.009 267.791,124.918 268.056,124.336 255.527 C 123.699 241.792,120.808 223.051,118.415 217.138 C 117.269 214.306,96.991 208.210,81.231 205.959 C 76.010 205.213,60.010 204.621,58.380 205.114 M159.236 213.339 C 160.655 217.585,161.235 221.203,161.209 225.656 C 161.179 230.802,161.194 230.784,158.769 228.696 C 154.462 224.987,150.328 222.230,145.298 219.711 L 142.441 218.281 144.879 216.362 C 147.822 214.043,151.915 209.835,153.994 206.988 L 155.520 204.900 156.856 207.558 C 157.591 209.020,158.662 211.621,159.236 213.339 M80.154 211.075 C 90.590 212.420,102.199 215.378,111.846 219.149 L 113.692 219.871 114.844 224.474 C 117.232 234.016,118.736 245.504,119.243 258.075 C 119.406 262.132,119.366 263.096,119.030 263.192 C 118.802 263.257,117.300 263.543,115.692 263.828 C 106.106 265.526,97.739 270.080,89.505 278.080 L 86.548 280.953 84.087 277.630 C 69.984 258.590,62.154 235.969,62.154 214.268 L 62.154 210.058 68.692 210.249 C 72.288 210.354,77.446 210.726,80.154 211.075 M209.860 253.056 C 205.557 254.678,196.328 289.761,192.776 318.000 C 191.226 330.318,190.314 344.298,191.031 344.741 C 191.225 344.861,191.385 345.213,191.385 345.523 C 191.385 347.268,192.530 347.681,199.692 348.519 C 227.354 351.755,255.135 343.645,286.615 323.145 C 294.076 318.287,294.144 318.169,291.829 314.157 C 288.703 308.737,283.938 304.995,276.685 302.265 C 273.818 301.186,273.753 301.207,268.882 304.798 C 258.666 312.329,246.747 319.727,235.372 325.596 C 229.749 328.497,229.766 328.381,235.538 324.460 C 245.328 317.810,261.579 305.197,267.260 299.839 C 269.145 298.061,269.010 297.018,266.367 292.952 C 262.550 287.078,255.683 281.998,248.076 279.421 C 244.387 278.172,246.122 276.631,231.840 293.846 C 218.439 309.999,218.464 309.972,220.705 306.308 C 221.637 304.785,226.221 297.314,230.892 289.706 C 237.920 278.258,239.385 275.680,239.385 274.753 C 239.385 272.562,233.386 264.478,228.887 260.606 C 222.725 255.302,213.553 251.663,209.860 253.056 M214.895 258.616 C 219.591 260.149,223.469 262.571,227.185 266.291 C 229.697 268.806,233.723 274.162,233.657 274.901 C 233.610 275.424,196.572 335.751,196.402 335.581 C 195.442 334.621,199.968 303.118,203.106 288.923 C 205.139 279.725,211.740 257.846,212.483 257.846 C 212.513 257.846,213.598 258.193,214.895 258.616 M122.000 275.809 C 111.761 279.455,101.931 286.380,94.256 295.355 C 91.465 298.618,91.451 298.551,95.959 303.846 C 107.486 317.385,122.438 328.567,135.180 333.177 C 139.985 334.916,140.919 334.530,142.116 330.308 C 143.828 324.269,148.150 317.912,152.891 314.459 C 154.852 313.032,155.484 311.954,155.132 310.643 C 154.883 309.717,128.435 275.167,127.656 274.750 C 126.757 274.269,125.849 274.439,122.000 275.809 M136.059 293.846 C 141.706 301.208,146.915 308.010,147.634 308.963 L 148.941 310.695 146.755 312.805 C 142.795 316.628,139.973 320.900,137.989 326.077 C 136.971 328.733,137.435 328.671,133.167 326.716 C 122.122 321.655,112.288 314.123,102.100 302.923 C 100.099 300.723,98.462 298.769,98.462 298.581 C 98.462 297.968,105.738 291.155,108.927 288.782 C 114.416 284.696,123.261 280.164,125.280 280.401 C 125.561 280.434,130.412 286.485,136.059 293.846 M250.308 286.109 C 255.199 288.468,258.719 291.374,261.940 295.712 L 262.755 296.808 258.685 300.201 C 244.968 311.634,231.531 321.283,218.154 329.303 C 212.208 332.868,202.207 338.310,201.993 338.096 C 201.738 337.840,246.302 284.615,246.768 284.620 C 247.022 284.622,248.615 285.292,250.308 286.109 M278.154 308.621 C 281.000 310.045,283.880 312.182,285.296 313.918 C 287.438 316.546,287.593 316.205,282.840 319.313 C 256.983 336.219,234.239 344.000,210.675 344.000 C 206.088 344.000,205.612 343.805,208.077 342.938 C 229.303 335.468,250.355 324.455,269.231 310.947 C 273.246 308.073,274.772 307.140,275.231 307.279 C 275.569 307.382,276.885 307.985,278.154 308.621 M159.181 318.425 C 153.101 323.508,148.615 331.804,148.615 337.963 C 148.615 342.236,166.898 349.042,181.043 350.037 C 186.573 350.426,186.753 350.119,185.565 342.337 C 184.798 337.317,184.654 336.771,183.939 336.183 C 183.507 335.829,178.691 331.454,173.236 326.462 C 161.201 315.447,162.117 315.970,159.181 318.425 M170.629 331.077 C 175.331 335.392,179.315 339.013,179.481 339.123 C 179.732 339.289,180.719 344.657,180.523 344.790 C 179.022 345.814,160.531 340.600,155.538 337.745 C 152.980 336.281,155.026 330.510,160.172 324.679 C 161.935 322.682,160.571 321.848,170.629 331.077 "
       stroke="none"
       fill="#fc3404"
       fill-rule="evenodd"
       style="fill:none;fill-opacity:0.96111113" />
    <path
       id="path2"
       d="M327.978 156.113 C 317.241 159.008,312.815 178.808,320.329 190.340 C 329.202 203.960,344.599 195.256,344.609 176.615 C 344.616 163.083,336.991 153.683,327.978 156.113 M288.124 158.390 C 279.741 161.385,275.272 176.481,279.354 188.017 C 285.975 206.727,304.959 200.629,305.747 179.538 C 306.281 165.264,297.702 154.968,288.124 158.390 "
       stroke="none"
       fill="#040404"
       fill-rule="evenodd"
       style="fill:#ffffff;fill-opacity:1" />
    <path
       id="path3"
       d="M191.077 26.195 C 140.605 27.554,92.765 53.872,60.268 98.154 C 18.944 154.466,17.637 237.779,57.171 295.692 C 94.680 350.639,153.959 379.290,219.193 373.999 C 255.330 371.068,284.559 359.725,313.005 337.593 C 327.819 326.068,330.863 312.486,321.433 300.000 C 313.249 289.164,287.063 271.497,262.923 260.524 C 261.326 259.798,261.371 259.835,267.692 264.475 C 289.181 280.246,303.972 291.721,307.968 295.722 C 319.511 307.278,319.970 317.286,309.423 327.483 C 288.347 347.861,255.637 360.941,215.692 364.965 C 169.956 369.573,115.674 347.685,84.532 312.079 C 47.859 270.148,34.749 222.975,44.494 168.003 C 48.528 145.246,57.758 123.916,72.615 103.015 C 84.247 86.652,94.583 76.875,113.823 64.034 C 124.781 56.721,129.108 54.553,141.431 50.200 C 187.471 33.937,228.686 34.234,266.963 51.102 C 309.236 69.731,339.393 100.638,356.323 142.684 C 357.565 145.768,358.626 148.246,358.681 148.191 C 358.863 148.009,357.525 141.464,356.283 136.462 C 343.951 86.789,303.186 46.639,250.562 32.335 C 232.855 27.522,214.014 25.577,191.077 26.195 M290.685 149.761 C 291.232 149.829,292.201 149.830,292.839 149.763 C 293.478 149.696,293.031 149.641,291.846 149.639 C 290.662 149.638,290.139 149.693,290.685 149.761 M322.596 159.154 L 321.692 160.154 322.692 159.250 C 323.624 158.408,323.834 158.154,323.596 158.154 C 323.543 158.154,323.093 158.604,322.596 159.154 M311.462 158.981 C 311.758 159.059,312.242 159.059,312.538 158.981 C 312.835 158.904,312.592 158.841,312.000 158.841 C 311.408 158.841,311.165 158.904,311.462 158.981 M316.406 176.308 C 316.406 177.408,316.462 177.858,316.530 177.308 C 316.599 176.758,316.599 175.858,316.530 175.308 C 316.462 174.758,316.406 175.208,316.406 176.308 M344.714 176.308 C 344.714 177.408,344.770 177.858,344.838 177.308 C 344.906 176.758,344.906 175.858,344.838 175.308 C 344.770 174.758,344.714 175.208,344.714 176.308 M277.634 178.308 C 277.636 179.323,277.693 179.701,277.761 179.148 C 277.830 178.595,277.829 177.765,277.758 177.302 C 277.688 176.840,277.632 177.292,277.634 178.308 M305.941 178.308 C 305.943 179.323,306.001 179.701,306.069 179.148 C 306.138 178.595,306.136 177.765,306.066 177.302 C 305.996 176.840,305.940 177.292,305.941 178.308 M312.692 195.289 C 312.988 195.366,313.473 195.366,313.769 195.289 C 314.065 195.212,313.823 195.148,313.231 195.148 C 312.638 195.148,312.396 195.212,312.692 195.289 M329.927 197.144 C 330.395 197.215,331.087 197.213,331.466 197.140 C 331.844 197.067,331.462 197.009,330.615 197.011 C 329.769 197.013,329.460 197.073,329.927 197.144 "
       stroke="none"
       fill="#fcc493"
       fill-rule="evenodd"
       style="fill:none;fill-opacity:1" />
    <path
       id="path4"
       d="M339.077 147.254 C 339.077 149.349,337.066 150.195,334.462 149.197 C 327.833 146.655,320.215 149.397,315.363 156.072 C 312.603 159.870,311.837 160.034,309.409 157.351 C 298.266 145.042,278.312 147.994,270.895 163.049 C 266.011 172.963,268.867 191.073,276.517 198.702 C 286.437 208.594,300.017 208.136,309.872 197.577 C 312.890 194.343,313.112 194.331,316.697 197.207 C 330.945 208.639,344.345 204.502,349.552 187.064 C 350.354 184.378,350.801 183.772,352.170 183.515 C 352.912 183.376,353.230 183.121,353.373 182.554 C 353.760 181.012,353.572 173.392,353.083 170.769 C 352.815 169.331,352.519 167.669,352.427 167.077 C 352.334 166.485,352.130 165.723,351.972 165.385 C 351.814 165.046,351.493 164.077,351.259 163.231 C 350.799 161.571,349.272 157.790,348.960 157.538 C 348.855 157.454,348.359 156.588,347.857 155.615 C 347.355 154.642,346.862 153.846,346.762 153.846 C 346.662 153.846,346.042 153.015,345.385 152.000 C 344.728 150.985,344.039 150.154,343.855 150.154 C 343.670 150.154,342.697 149.323,341.692 148.308 C 339.695 146.290,339.077 146.041,339.077 147.254 M335.349 156.741 C 346.142 162.278,348.203 183.348,338.915 193.194 C 328.745 203.974,314.467 191.072,316.619 173.047 C 318.144 160.278,327.079 152.499,335.349 156.741 M296.750 158.900 C 307.335 164.079,309.295 186.027,300.010 195.401 C 290.362 205.141,277.784 195.478,277.760 178.308 C 277.739 163.779,287.122 154.190,296.750 158.900 "
       stroke="none"
       fill="#fbfafa"
       fill-rule="evenodd"
       style="fill:none;fill-opacity:1" />
  </g>
</svg>
