<?xml version="1.0" encoding="UTF-8" standalone="no"?>
<!-- Created with Inkscape (http://www.inkscape.org/) -->

<svg
   xmlns:dc="http://purl.org/dc/elements/1.1/"
   xmlns:cc="http://creativecommons.org/ns#"
   xmlns:rdf="http://www.w3.org/1999/02/22-rdf-syntax-ns#"
   xmlns:svg="http://www.w3.org/2000/svg"
   xmlns="http://www.w3.org/2000/svg"
   xmlns:sodipodi="http://sodipodi.sourceforge.net/DTD/sodipodi-0.dtd"
   xmlns:inkscape="http://www.inkscape.org/namespaces/inkscape"
   width="100"
   height="100"
   viewBox="0 0 26.458333 26.458334"
   version="1.1"
   id="svg8"
   inkscape:version="0.92.1 r15371"
   sodipodi:docname="touch.svg">
  <defs
     id="defs2" />
  <sodipodi:namedview
     id="base"
     pagecolor="#ffffff"
     bordercolor="#666666"
     borderopacity="1.0"
     inkscape:pageopacity="0.0"
     inkscape:pageshadow="2"
     inkscape:zoom="0.98994949"
     inkscape:cx="14.342626"
     inkscape:cy="21.75715"
     inkscape:document-units="mm"
     inkscape:current-layer="layer1"
     showgrid="false"
     units="px"
     inkscape:window-width="1366"
     inkscape:window-height="705"
     inkscape:window-x="-8"
     inkscape:window-y="-8"
     inkscape:window-maximized="1" />
  <metadata
     id="metadata5">
    <rdf:RDF>
      <cc:Work
         rdf:about="">
        <dc:format>image/svg+xml</dc:format>
        <dc:type
           rdf:resource="http://purl.org/dc/dcmitype/StillImage" />
        <dc:title></dc:title>
      </cc:Work>
    </rdf:RDF>
  </metadata>
  <g
     inkscape:label="Camada 1"
     inkscape:groupmode="layer"
     id="layer1"
     transform="translate(0,-270.54165)">
    <path
       style="opacity:1;fill:#fc814a;fill-opacity:1;fill-rule:evenodd;stroke:none;stroke-width:1.56500006;stroke-linecap:butt;stroke-linejoin:miter;stroke-miterlimit:4;stroke-dasharray:none;stroke-opacity:1;paint-order:markers fill stroke"
       d="m 13.229167,274.88815 a 8.8824405,8.8824405 0 0 0 -8.8826623,8.88267 8.8824405,8.8824405 0 0 0 8.8826623,8.88266 8.8824405,8.8824405 0 0 0 8.882662,-8.88266 8.8824405,8.8824405 0 0 0 -8.882662,-8.88267 z m -0.86248,3.51555 0.516248,0.24805 0.358117,0.54312 v 2.75694 h 1.210779 v 0.72295 h 1.120862 v 0.42943 h 0.890901 l 0.375688,0.65526 v 2.89905 l -0.773079,1.34927 v 1.13016 h -3.990971 l -0.02894,-1.17719 -2.3554116,-4.11293 -0.07183,-0.44648 0.3234944,-0.33073 0.4263302,-0.15503 0.406177,0.30179 0.807186,0.81339 v -4.83588 l 0.268717,-0.5426 z"
       id="path4503"
       inkscape:connector-curvature="0" />
  </g>
</svg>
