<?xml version="1.0" encoding="UTF-8" standalone="no"?>
<!-- Created with Inkscape (http://www.inkscape.org/) -->

<svg
   xmlns:dc="http://purl.org/dc/elements/1.1/"
   xmlns:cc="http://creativecommons.org/ns#"
   xmlns:rdf="http://www.w3.org/1999/02/22-rdf-syntax-ns#"
   xmlns:svg="http://www.w3.org/2000/svg"
   xmlns="http://www.w3.org/2000/svg"
   xmlns:sodipodi="http://sodipodi.sourceforge.net/DTD/sodipodi-0.dtd"
   xmlns:inkscape="http://www.inkscape.org/namespaces/inkscape"
   width="1000"
   height="60"
   viewBox="0 0 264.58333 15.875"
   version="1.1"
   id="svg4775"
   inkscape:version="0.92.1 r15371"
   sodipodi:docname="nuvens.svg">
  <defs
     id="defs4769" />
  <sodipodi:namedview
     id="base"
     pagecolor="#ffffff"
     bordercolor="#666666"
     borderopacity="1.0"
     inkscape:pageopacity="0.0"
     inkscape:pageshadow="2"
     inkscape:zoom="0.7"
     inkscape:cx="536.1869"
     inkscape:cy="-20.327885"
     inkscape:document-units="mm"
     inkscape:current-layer="layer1"
     showgrid="false"
     units="px"
     inkscape:window-width="1366"
     inkscape:window-height="705"
     inkscape:window-x="-8"
     inkscape:window-y="-8"
     inkscape:window-maximized="1" />
  <metadata
     id="metadata4772">
    <rdf:RDF>
      <cc:Work
         rdf:about="">
        <dc:format>image/svg+xml</dc:format>
        <dc:type
           rdf:resource="http://purl.org/dc/dcmitype/StillImage" />
        <dc:title></dc:title>
      </cc:Work>
    </rdf:RDF>
  </metadata>
  <g
     inkscape:label="Camada 1"
     inkscape:groupmode="layer"
     id="layer1"
     transform="translate(0,-281.125)">
    <path
       style="fill:#ffffff;stroke:#ffffff;stroke-width:0.26458332px;stroke-linecap:butt;stroke-linejoin:miter;stroke-opacity:1;fill-opacity:1"
       d="M 8.8824417,293.59822 H 32.127976 c 0,0 -4.535714,-4.91369 -6.992559,-4.06325 -2.456845,0.85045 -2.456845,0.85045 -2.456845,0.85045 0,0 -3.96875,-6.61458 -6.898065,-3.68527 -2.929316,2.92932 -2.929316,2.92932 -2.929316,2.92932 0,0 -4.2522323,-1.79539 -3.9687493,3.96875 z"
       id="path5324"
       inkscape:connector-curvature="0" />
    <path
       style="fill:#ffffff;stroke:#ffffff;stroke-width:0.26458332px;stroke-linecap:butt;stroke-linejoin:miter;stroke-opacity:1;fill-opacity:1"
       d="M 54.779429,289.31459 H 38.716083 c 0,0 3.134312,-3.35038 4.832064,-2.77051 1.697751,0.57987 1.697751,0.57987 1.697751,0.57987 0,0 2.742523,-4.51013 4.766766,-2.51279 2.024243,1.99735 2.024243,1.99735 2.024243,1.99735 0,0 2.938417,-1.22418 2.742522,2.70608 z"
       id="path5324-6"
       inkscape:connector-curvature="0" />
    <path
       style="fill:#ffffff;stroke:#ffffff;stroke-width:0.26458332px;stroke-linecap:butt;stroke-linejoin:miter;stroke-opacity:1;fill-opacity:1"
       d="m 73.432744,294.12812 h 25.997443 c 0,0 5.094093,-2.2674 3.161853,-5.75571 -1.93225,-3.48832 -8.431607,-4.18598 -10.188194,-1.56975 -1.756582,2.61623 -1.756582,2.61623 -1.756582,2.61623 0,0 -10.715162,-6.97662 -12.823062,-2.79064 -2.1079,4.18597 -2.1079,4.01156 -2.1079,4.01156 0,0 -4.567116,-2.96507 -2.283558,3.48831 z"
       id="path5341"
       inkscape:connector-curvature="0" />
    <path
       style="fill:#ffffff;stroke:#ffffff;stroke-width:0.26458332px;stroke-linecap:butt;stroke-linejoin:miter;stroke-opacity:1;fill-opacity:1"
       d="m 117.2379,290.65141 h 17.80803 c 0,0 -5.82609,-4.04433 -7.36505,-2.55431 -1.53897,1.49002 -1.53897,1.49002 -1.53897,1.49002 0,0 -2.5283,-3.93791 -3.95734,-3.29933 -1.42903,0.63858 -1.64889,0.74501 -1.64889,0.74501 0,0 -1.86874,-2.98004 -3.40771,-1.91574 -1.53896,1.0643 -2.41837,3.29933 -2.41837,3.29933 0,0 -1.42904,2.66074 2.5283,2.23502 z"
       id="path5343"
       inkscape:connector-curvature="0" />
    <path
       style="fill:#ffffff;stroke:#ffffff;stroke-width:0.26458332px;stroke-linecap:butt;stroke-linejoin:miter;stroke-opacity:1;fill-opacity:1"
       d="m 148.04389,294.95254 h 20.53363 c 0,0 1.2996,-8.37414 -2.07935,-5.9634 -3.37896,2.41074 -3.37896,2.79138 -3.37896,2.79138 0,0 -5.58827,-4.82147 -7.79758,-1.90321 -2.20931,2.91825 -2.33927,3.04514 -2.33927,3.04514 0,0 -5.06843,-1.64945 -4.93847,0.12688 0.12996,1.77633 0,1.90321 0,1.90321 z"
       id="path5345"
       inkscape:connector-curvature="0" />
    <path
       style="fill:#ffffff;stroke:#ffffff;stroke-width:0.26458332px;stroke-linecap:butt;stroke-linejoin:miter;stroke-opacity:1;fill-opacity:1"
       d="m 191.72714,295.33901 h 34.4473 c 0,0 6.7498,-3.01969 4.18953,-7.66536 -2.56028,-4.64568 -11.17209,-5.57481 -13.49962,-2.09056 -2.32752,3.48425 -2.32752,3.48425 -2.32752,3.48425 0,0 -14.19787,-9.29134 -16.99089,-3.71653 -2.79303,5.5748 -2.79303,5.34253 -2.79303,5.34253 0,0 -6.05155,-3.94883 -3.02577,4.64567 z"
       id="path5341-9"
       inkscape:connector-curvature="0" />
  </g>
</svg>
